<?xml version="1.0" standalone="no"?>
<!DOCTYPE svg PUBLIC "-//W3C//DTD SVG 1.1//EN" "http://www.w3.org/Graphics/SVG/1.1/DTD/svg11.dtd" >
<svg xmlns="http://www.w3.org/2000/svg">
<metadata>Generated by IcoMoon</metadata>
<defs>
<font id="ua-brand-symbols" horiz-adv-x="1024">
<font-face units-per-em="1024" ascent="960" descent="-64" />
<missing-glyph horiz-adv-x="1024" />
<glyph unicode="&#x20;" d="" horiz-adv-x="512" />
<glyph unicode="&#xe600;" d="M774.316 793.417v-203.352c0-88.777-18.969-135.062-58.426-173.759-40.216-40.216-93.33-61.461-167.69-61.461-119.129 0-203.352 75.12-203.352 195.764v168.448c0 48.561-1.518 146.444-5.311 182.865 30.351 0 57.668 0.759 82.707 3.793-2.276-22.005-3.034-82.707-3.034-112.298v-218.527c0-113.057 56.15-154.032 143.408-154.032 86.5 0 137.339 53.115 137.339 138.097v160.102c0 48.561-1.518 146.444-6.070 182.865 30.351 0 58.426 0.759 84.224 3.793-3.037-22.005-3.793-82.707-3.793-112.298zM85.196 242.251c13.454 29.744 22.309 49.93 30.1 70.111l22.663 2.833 82.862-182.010c10.27-22.306 23.37-50.99 34.349-72.235l-49.221-2.833-28.682 66.217h-100.21l-0.354-1.060c-7.083-17.35-18.058-45.325-25.139-62.325h-48.157l81.796 181.298zM90.506 157.266h72.944l-36.471 86.401-36.474-86.401zM366.095 181.701c-12.391 10.268-27.268 15.225-42.491 15.225-29.39 0-49.571-23.017-49.571-52.406 0-36.12 24.786-54.886 52.055-54.886 18.765 0 31.87 5.313 48.511 20.185l-1.418-40.013c-17.703-10.624-31.515-15.225-54.176-15.225-51.698 0-87.11 37.536-87.11 84.277 0 52.055 37.18 93.126 90.293 93.126 19.122 0 38.948-5.665 53.47-15.934l-9.563-34.349zM529.988 181.701c-12.391 10.268-27.264 15.225-42.491 15.225-29.39 0-49.571-23.017-49.571-52.406 0-36.12 24.789-54.886 52.055-54.886 18.765 0 31.87 5.313 48.511 20.185l-1.418-40.013c-17.703-10.624-31.515-15.225-54.176-15.225-51.698 0-87.11 37.536-87.11 84.277 0 52.055 37.18 93.126 90.293 93.126 19.122 0 38.948-5.665 53.47-15.934l-9.563-34.349zM693.787 136.729l-97.733-2.831c2.48-29.744 18.414-44.972 48.159-44.972 25.848 0 44.972 10.268 61.256 22.309l-1.062-36.827c-19.122-12.391-40.013-19.83-64.799-19.83-57.366 0-84.986 39.307-84.986 84.986 0 52.406 34.349 92.421 86.401 92.421 50.283 0 71.882-36.827 71.882-82.152l-19.122-13.103zM674.312 161.517c-2.833 24.789-13.103 38.241-35.056 38.241-23.726 0-38.948-17.35-42.494-40.722l77.55 2.48zM860.56 219.234l-10.978-32.931c-11.686 7.792-26.202 12.747-40.72 12.747-14.165 0-25.497-4.959-25.497-17.35 0-24.076 83.923-19.122 83.923-71.528 0-35.056-30.098-55.594-68.342-55.594-18.765 0-45.678 5.667-59.488 14.519l1.772 37.533c14.872-10.268 37.887-19.122 57.718-19.122 16.643 0 27.976 6.375 27.976 17.703 0 28.684-83.568 20.185-83.568 74.362 0 29.037 25.142 52.406 63.739 52.406 21.245 0 41.78-6.018 53.47-12.747zM1006.248 219.234l-10.978-32.931c-11.686 7.792-26.202 12.747-40.72 12.747-14.165 0-25.497-4.959-25.497-17.35 0-24.076 83.923-19.122 83.923-71.528 0-35.056-30.098-55.594-68.342-55.594-18.765 0-45.678 5.667-59.488 14.519l1.772 37.533c14.872-10.268 37.889-19.122 57.718-19.122 16.643 0 27.976 6.375 27.976 17.703 0 28.684-83.568 20.185-83.568 74.362 0 29.037 25.142 52.406 63.739 52.406 21.247 0 41.782-6.018 53.468-12.747z" horiz-adv-x="1025" />
<glyph unicode="&#xe601;" d="M80.368 256h863.504c9.624 0 16.368 6.958 16.368 14.792v546.356c0 8.7-7.704 14.792-16.368 14.792h-863.504c-9.626 0-16.368-6.96-16.368-14.792v-545.49c0-8.7 7.702-15.658 16.368-15.658v0zM128 768h768v-448h-768v448zM320.522 451.084l-32.606 35.45-18.226-16.36 51.792-49.084 87.278 81.808-18.224 14.542-70.014-66.356zM320.522 596.518l-32.606 35.45-18.226-16.36 51.792-49.082 87.278 81.804-18.224 15.454-70.014-67.266zM1007.362 224h-990.722c-9.154 0-16.64-7.734-16.64-17.582v-29.54c0-9.138 7.486-16.878 16.64-16.878h990.722c9.148 0 16.638 7.734 16.638 17.582v29.54c-0.83 9.14-7.49 16.878-16.638 16.878z" />
<glyph unicode="&#xe602;" d="M792 256c-25.334-64.668-79.204-94.956-141.872-114.544l201.332-201.328 125.464 125.484-184.924 190.388zM830.292 544.854c0 227.156-187.992 415.146-415.146 415.146-227.152 0-415.146-187.992-415.146-415.146s187.994-415.146 415.146-415.146c227.154 0 415.146 187.992 415.146 415.146zM415.15 309.868c-129.244 0-234.988 105.75-234.988 234.988 0 129.242 105.748 234.99 234.988 234.99s234.986-105.748 234.986-234.99c-0.002-129.238-105.748-234.988-234.986-234.988z" horiz-adv-x="980" />
<glyph unicode="&#xe603;" d="M140.85 557.074h-15.36c-14.508 0-26.454-15.36-26.454-34.988 0-19.626 11.948-34.988 26.454-34.988h17.066c-1.706 13.656-2.56 27.308-2.56 41.812 0 9.386 0 18.774 0.854 28.16v0.004zM157.064 400.062c-14.508 0-26.454-15.36-26.454-34.984 0-19.626 11.948-34.988 26.454-34.988h29.016c3.414 0 6.826 0.854 10.24 2.56-12.8 21.332-23.894 43.522-33.28 67.414l-5.976-0.002zM248.372 266.944c-7.68-5.972-11.95-17.068-11.95-29.014 0-19.626 11.95-34.986 26.454-34.986h29.012c8.536 0 15.36 5.12 20.48 12.798-23.040 14.508-45.226 31.572-64 51.202h0.004zM715.998 219.156c4.27-3.414 9.386-5.122 14.504-5.122h29.016c14.508 0 26.454 15.36 26.454 34.984 0 8.536-2.562 17.070-6.828 23.042-18.774-20.478-40.106-38.4-63.148-52.908l0.002 0.004zM838.876 338.622h29.012c14.508 0 26.454 15.36 26.454 34.986s-11.95 34.986-26.454 34.986h-5.118c-8.536-23.894-18.778-46.934-31.574-68.27 3.416-0.852 5.122-1.704 7.68-1.702v0zM897.756 569.020h-16.21c1.704-13.652 2.558-26.45 2.558-40.106 0-10.238-0.852-19.626-0.852-29.012h15.36c14.508 0 26.454 15.36 26.454 34.988-0.852 18.774-12.8 34.134-27.308 34.134v-0.004zM883.248 690.196c0 19.628-11.946 34.984-26.45 34.984h-29.016c0 0 0 0-0.852 0 13.652-21.332 24.746-44.374 34.132-69.12 12.8 2.56 22.188 17.068 22.188 34.132l-0.002 0.004zM777.436 809.662c0 19.628-11.95 34.988-26.454 34.988h-29.012c-3.414 0-6.828-0.854-10.242-2.56 22.188-14.506 43.52-30.72 62.296-49.494 1.704 5.12 3.414 11.094 3.414 17.068l-0.002-0.002zM633.224 888.168c0 19.626-11.95 34.986-26.454 34.986h-29.016c-11.946 0-22.188-10.24-25.598-24.746 28.16-3.414 54.614-9.388 80.21-17.92 0.852 2.56 0.852 5.12 0.852 7.68h0.006zM452.316 924.864h-29.012c-14.508 0-26.454-15.36-26.454-34.986 0-2.56 0-5.12 0.856-7.68 25.6 8.534 52.906 13.654 81.066 16.214-3.414 15.36-13.652 26.452-26.45 26.452h-0.006zM302.982 862.568h-29.012c-14.508 0-26.456-15.36-26.456-34.986 0-11.094 4.268-21.334 10.242-27.308 19.626 18.772 41.81 34.986 65.706 49.492-5.118 7.682-11.946 12.8-20.48 12.802v0zM195.464 737.982h-29.012c-14.508 0-26.454-15.36-26.454-34.986 0-19.624 11.948-34.988 26.454-34.988v0c9.388 23.894 22.188 46.934 35.84 68.27-1.706 0.85-4.268 1.704-6.828 1.704zM325.172 207.208c-0.856 0.852-1.708 0.852-2.562 1.706v0l2.562-1.706zM675.038 195.262l2.558 0.852c-1.708 0-1.708-0.852-2.558-0.852v0zM348.21 195.262v0c-0.856 0-0.856 0.852-1.708 0.852l1.708-0.852zM698.076 207.208v0c-0.852-0.852-2.558-0.852-3.414-1.706l3.414 1.706zM348.21 195.262c49.492-23.894 104.96-37.548 162.986-37.548 58.878 0 114.348 13.654 162.988 37.548l-160.43 304.64-165.544-304.64zM535.088 169.66h-41.81v242.348h41.81v-242.348zM842.292 534.036c0 19.624 11.946 34.988 26.45 34.988h11.95c-3.414 29.866-10.238 59.73-20.48 87.040-1.708 0-2.558-0.854-4.266-0.854h-28.16c-14.508 0-26.454 15.36-26.454 34.988 0 18.774 11.95 34.134 26.454 34.986-16.214 24.746-34.136 46.932-54.618 67.414-4.266-10.24-13.652-17.92-23.040-17.92h-29.012c-14.508 0-26.454 15.362-26.454 34.988 0 14.506 6.824 27.306 17.066 32.428-24.746 15.36-51.2 29.012-79.36 38.4-2.558-15.36-13.652-27.308-26.454-27.308h-29.012c-14.508 0-26.454 15.36-26.454 34.986 0 3.414 0.852 6.826 1.708 10.24-13.656 1.706-27.308 2.56-40.96 2.56-11.092 0-22.186-0.854-33.28-1.706 0.856-2.56 0.856-5.974 0.856-8.534 0-19.628-11.95-34.986-26.454-34.986h-29.012c-12.8 0-23.894 11.946-26.454 27.306-26.45-8.534-51.2-19.626-74.238-33.28 3.414-5.972 5.972-13.654 5.972-22.188 0-19.626-11.948-34.986-26.452-34.986h-29.012c-5.974 0-11.948 2.56-16.212 7.68-20.48-18.772-38.402-40.108-54.614-64 11.092-4.268 18.774-17.068 18.774-33.28 0-19.626-11.95-34.988-26.456-34.988h-28.16c-13.652-34.988-23.040-71.68-25.6-110.934h13.652c14.508 0 26.454-15.36 26.454-34.984 0-19.626-11.948-34.988-26.454-34.988h-11.948c3.414-30.72 10.24-59.734 20.48-87.042h22.188c14.508 0 26.454-15.36 26.454-34.986 0-14.504-6.824-27.308-16.21-32.428 15.36-23.892 32.426-46.080 52.050-66.56 4.268 3.414 9.39 5.972 14.51 5.972h29.012c14.508 0 26.452-15.36 26.452-34.984 0-8.536-2.558-16.212-5.972-22.19 3.414-2.56 6.824-5.12 11.094-6.826l189.44 349.012 186.028-349.866c5.972 3.414 11.95 7.68 17.918 11.092-7.68 5.972-12.796 17.068-12.796 29.868 0 19.624 11.946 34.984 26.45 34.984h29.868c7.68 0 15.36-4.268 19.624-11.948 20.48 20.478 37.55 44.374 52.91 69.12-11.094 4.27-19.624 17.068-19.624 33.282 0 19.624 11.946 34.984 26.45 34.984h23.894c10.242 29.016 16.21 58.88 18.774 90.454h-12.8c-14.504 0.854-26.45 16.214-26.45 34.986l-0.010 0.008zM853.38 627.9l10.242-40.106-235.52-59.732-10.242 40.106 235.52 59.732zM169.010 599.742l10.24 40.106 234.666-60.586-10.238-40.106-234.668 60.586zM179.25 425.66l-10.24 40.106 235.52 58.88 10.238-40.106-235.518-58.88zM247.52 290.836l-25.602 33.28 192 147.626 25.602-33.28-192-147.626zM419.89 589.5l-188.586 152.746 26.454 32.43 187.734-152.746-25.602-32.43zM452.316 621.074l-106.666 217.6 37.548 18.774 106.668-218.454-37.55-17.92zM535.088 637.288h-41.81v242.346h41.81v-242.346zM543.624 637.288l103.254 219.308 37.546-17.92-103.254-219.308-37.546 17.92zM778.292 758.462l25.598-33.28-192.852-147.626-25.602 33.28 192.856 147.626zM775.728 286.57l-188.586 152.744 26.454 32.428 188.586-152.746-26.454-32.426zM853.38 419.688l-234.668 60.588 10.242 40.106 234.668-60.586-10.242-40.108zM64.166 64h895.834v-63.75h-895.834v63.75zM348.21 195.262l-70.826-131.414c0 0-29.866 0-32.426 0l78.506 145.066c2.56-1.706 24.748-13.652 24.746-13.652v0zM675.038 195.262l69.968-131.414h29.868l-76.8 143.36-23.036-11.946z" />
<glyph unicode="&#xe604;" d="M576 448h-438.094l-137.906 128 139.406 128h436.624l-0.030-256zM448.19 832h433.36l140.412-128-140.296-128-241.55-0.24 0.046 192-191.808 0.24zM576 960h128l-0.666-64.666h-128l0.666 64.666zM704.084-64h-128.052l-0.032 448h64.124l0.052 128h63.854l0.054-576z" />
<glyph unicode="&#xe605;" d="M457.386 499.2h-70.826v17.92h-0.854c-7.68-10.24-30.72-23.894-66.56-23.894-40.106 0-70.826 17.92-70.826 62.294v104.106h73.388v-85.332c0-20.48 11.094-29.014 28.16-29.014 23.040 0 34.132 14.508 34.132 38.4v75.946h73.388v-160.426zM501.762 610.988c4.268 22.186 13.654 35.84 31.572 43.52 17.92 8.532 44.374 11.092 82.774 11.092 75.092 0 104.106-17.068 104.106-64.852v-77.654c0-11.948 3.414-19.628 6.826-24.748h-75.092c-1.706 4.266-2.56 10.24-2.56 16.212-16.212-15.36-40.96-22.186-80.212-22.186-49.494 0-80.212 12.8-80.212 54.612 0 29.014 20.48 47.786 75.092 50.346l61.44 2.56c14.506 0.852 19.626 4.266 19.626 12.8 0 10.24-12.8 15.36-34.134 15.36-17.068 0-33.28-2.56-36.692-17.92h-72.534zM647.68 572.586c-11.948-3.414-33.28-5.12-58.88-6.826-13.654-0.854-19.626-5.972-19.626-16.212 0-11.094 9.388-17.92 27.308-17.92 24.746 0 52.052 5.972 52.052 33.28v7.68zM112.64 418.134c0 5.12-3.414 9.386-7.68 12.8-3.414 3.414-8.532 5.12-13.652 5.12-8.534 0-18.772-1.706-18.772-12.8 0-5.12 3.412-6.826 7.68-8.534 10.24-4.268 34.134-5.972 55.468-12.8s39.252-18.774 39.252-46.080c0-46.080-43.52-58.028-83.628-58.028-38.4 0-81.066 15.36-81.92 58.028h59.732c0-5.972 2.56-10.24 7.68-14.506 3.412-2.56 9.388-5.12 17.068-5.12 8.532 0 21.332 3.414 21.332 12.8s-5.12 12.8-34.986 17.068c-47.788 8.534-67.412 23.894-67.412 52.052 0 41.812 45.226 52.052 77.654 52.052 35.84 0 78.508-10.24 80.212-52.052h-58.028zM373.762 337.92c0-12.8 0.854-26.452 7.68-36.692h-64c-1.706 4.268-2.56 11.092-2.56 15.36h-0.854c-13.654-15.36-32.428-19.626-52.906-19.626-31.572 0-58.026 15.36-58.026 49.494 0 52.052 61.44 50.346 93.012 56.32 8.534 1.706 17.068 4.268 17.068 14.506 0 11.092-10.24 15.36-20.48 15.36-19.628 0-23.040-10.24-23.894-17.068h-58.88c0.854 23.040 12.8 36.692 29.012 44.372s36.692 9.388 56.32 9.388c78.508 0 78.508-32.428 78.508-64.852v-66.56zM314.026 375.466c-7.68-3.414-16.214-5.972-24.748-7.68-13.654-3.414-21.334-6.826-21.334-17.92 0-7.68 8.534-15.36 19.628-15.36 14.508 0 25.6 8.534 26.452 25.6v15.36zM527.362 301.226h-74.24l-53.76 164.692h66.56l25.6-100.692h0.852l26.452 100.692h64l-55.466-164.692zM733.868 301.226h-74.24l-53.76 164.692h66.56l25.6-100.692h0.852l26.452 100.692h64l-55.466-164.692zM943.786 314.028c-5.12-14.506-11.092-33.28-20.48-46.080-16.212-20.48-41.812-20.48-66.56-20.48h-29.014v50.346h14.506c5.972 0 14.506-0.852 18.774 1.706 3.414 1.706 5.972 5.12 5.972 12.8s-23.894 68.268-27.308 78.508l-28.16 75.948h67.414l26.452-94.72h0.852l26.452 94.72h64.852l-53.76-152.746z" />
<glyph unicode="&#xe606;" d="M471.79 509.2l146.33-146.33-146.33-146.33v292.66zM0-2h1024v770h-1024v-770zM516.698 613.338c137.16 0 248.956-110.854 248.956-248.956 0-137.16-110.856-248.956-248.956-248.956s-248.956 111.794-248.956 248.956c0 137.162 111.794 248.956 248.956 248.956v0 0zM0 896.666h1024v-65.334h-1024v65.334z" />
<glyph unicode="&#xe607;" d="M1008.176 344.543c-1.054 34.838-8.445 67.566-20.058 99.232-14.781 40.118-38.006 76.009-65.454 108.737-6.334 7.389-11.614 13.724-16.891 21.115-6.334 8.445-11.614 17.949-14.781 28.504-5.281 13.724-5.281 28.504 0 42.229 5.281 12.669 8.445 25.337 11.612 39.059 4.224 21.115 5.281 42.226 4.224 63.341-1.054 11.614-3.166 23.226-6.334 34.838-4.224 14.781-8.445 29.56-10.558 44.338-1.054 8.445-2.11 16.891-3.166 24.282-1.054 11.614 1.054 22.169 3.166 33.784 3.166 14.781 7.389 29.558 10.558 45.393 0 1.054 0 2.11 1.054 3.166-20.058 8.445-39.059 15.836-59.12 24.282-1.054-2.11-1.054-4.224-2.11-6.334-3.166-11.614-7.389-22.169-13.722-31.671-5.281-7.389-10.558-14.781-19.003-20.058-14.781-9.501-29.56-19.003-43.281-28.504-11.612-7.391-24.279-14.781-35.894-23.226-20.058-12.669-39.059-28.504-55.95-45.395-2.11-2.11-3.166-2.11-5.281-1.054-21.115 5.278-42.229 9.501-63.341 12.669-16.891 2.11-32.725 4.224-49.617 5.278-19.003 1.056-36.949 2.112-55.95 1.056-10.558 0-21.115-1.056-31.671-2.11-12.669-1.054-25.337-3.166-38.006-4.224-17.949-2.11-34.838-5.278-52.786-9.501-5.278-1.056-11.614-2.112-16.891-4.224-2.11-1.056-3.166 0-5.278 1.054-15.836 15.836-32.725 29.56-50.672 41.173-13.724 9.501-27.45 17.949-41.173 26.391-12.669 8.445-25.337 15.836-38.006 24.282-16.891 10.558-28.504 25.337-34.838 44.338-2.11 5.278-3.166 9.501-4.224 14.781 0 1.054-1.056 2.11-1.056 3.166-20.058-8.445-39.062-15.836-59.12-24.279 1.056-4.224 2.11-8.445 3.166-12.669 4.224-14.781 7.391-30.615 10.555-46.454 2.11-12.669 2.11-26.391 0-39.059-3.166-19.003-7.391-36.949-12.669-54.896-6.334-21.115-7.391-42.226-5.278-64.395 1.056-19.003 4.224-36.951 9.501-54.896 2.11-5.281 3.166-10.558 5.278-14.781 6.334-15.836 5.278-31.671-1.056-47.506-5.278-12.669-12.669-24.279-21.115-33.784-13.722-15.836-26.391-31.671-38.006-49.617-23.224-34.838-40.115-71.789-49.617-111.902-4.222-16.891-6.334-33.784-7.389-51.726 0-2.11-1.054-5.281-1.054-7.389 0-8.445 0-16.891 0-24.279 0-2.11 1.054-4.224 1.054-6.334 3.166-54.896 20.060-106.626 46.448-154.129 12.669-23.226 27.45-45.393 43.281-67.566 1.056-1.054 1.056-1.054 2.11-2.11 7.391 16.891 13.722 32.725 21.115 48.562 0 0 0 0 1.056 0 1.056-2.11 1.056-5.281 2.11-7.389 8.445-36.949 25.337-68.619 48.562-98.178 20.060-25.337 44.338-46.454 70.732-64.395 14.781-10.558 29.558-19.003 46.448-28.504 1.056 1.054 2.11 2.11 3.166 3.166 2.11 4.224 5.278 8.445 7.391 12.669 6.334 11.612 12.669 22.169 21.115 32.725 7.391 10.558 15.836 20.058 26.391 27.45 9.501 7.389 19.003 11.614 29.56 14.781 11.614 2.11 23.226 2.11 34.838-1.054 13.724-4.224 25.337-9.501 36.951-17.947 19.003-12.669 34.838-27.45 49.617-44.338 2.11-2.11 3.166-4.224 5.281-6.334 1.054 1.054 1.054 1.054 2.11 2.11 11.612 15.836 26.391 28.504 41.173 41.173 11.612 8.445 23.226 15.836 35.894 21.115 9.501 4.224 19.003 6.334 29.56 7.389 14.781 1.054 27.45-3.166 40.118-10.558 11.612-7.389 20.058-15.836 28.504-26.391s15.836-21.115 22.169-32.725c3.166-6.334 7.389-11.614 10.558-17.947 1.054-2.11 2.11-3.166 3.166-4.224 1.054 0 1.054 0 1.054 0 27.45 14.781 52.786 31.671 77.065 52.786 23.226 20.058 44.338 43.281 60.175 69.675 13.722 23.226 23.226 47.506 28.504 73.897 0 1.054 0 1.054 1.054 3.166 7.389-16.891 13.722-32.725 21.115-49.617 1.054 1.054 1.054 1.054 1.054 1.054 27.45 36.949 51.726 76.009 67.562 118.234 9.501 24.279 15.836 49.617 20.058 74.953 2.11 10.558 3.166 21.115 3.166 31.671 0 2.11 0 3.166 1.054 5.281 0 6.334 0 13.722 0 20.058-1.054 3.166-1.054 4.224-1.054 5.281zM840.319 362.49c0-1.054 0-2.11 0-3.166 0-6.334-1.054-12.669-2.11-19.003-2.11-15.836-7.389-30.615-13.722-45.393-10.558-26.391-26.391-49.617-45.393-71.789 0 0-1.054 0-1.054-1.054-4.224 9.501-9.501 20.058-13.722 29.56 0-1.054 0-1.054-1.054-2.11-3.166-15.836-9.501-30.615-19.003-44.338-10.558-15.836-24.279-29.56-40.118-42.229s-32.725-22.169-50.672-31.671c0 0 0 0-1.054 0-1.054 1.054-1.054 2.11-2.11 3.166-2.11 3.166-4.224 7.389-7.389 10.558-4.224 7.389-9.501 13.722-14.781 20.058s-11.612 11.614-19.003 15.836c-8.445 4.224-16.891 7.389-26.391 6.334-7.389 0-13.722-2.11-20.058-4.224-8.445-3.166-16.891-7.389-24.279-12.669-10.558-7.389-20.058-15.836-27.45-24.279 0 0-1.056-1.054-1.056-1.054-1.056 1.054-2.11 3.166-3.166 4.224-9.501 10.558-20.060 19.003-32.725 27.45-7.391 4.224-15.836 8.445-24.282 10.558-7.391 2.11-14.781 2.11-23.226 1.054-7.391-1.054-13.724-4.224-20.060-8.445-6.334-5.281-12.669-10.558-17.949-16.891s-9.501-12.669-13.724-20.058c-2.11-2.11-3.166-5.281-5.278-7.389 0-1.054-1.056-1.054-2.11-2.11-10.558 5.281-21.115 10.558-30.618 16.891-16.891 11.614-33.784 24.279-46.454 39.059-15.836 17.947-26.391 36.949-32.725 59.12 0 1.054-1.056 3.166-1.056 5.281 0 0 0 0 0 0-4.224-9.501-9.501-20.058-13.724-29.56-1.056 1.054-1.056 1.054-1.056 1.054-10.558 12.669-20.060 26.391-28.504 41.173-16.891 29.56-28.504 60.175-30.618 93.958 0 1.054 0 2.11-1.056 3.166 0 5.281 0 9.501 0 14.781 0 1.054 1.056 3.166 1.056 4.224 1.056 10.558 2.11 21.115 5.278 31.671 6.334 24.279 17.949 47.506 32.725 67.562 7.391 10.558 15.836 20.060 25.337 29.558 6.334 6.334 10.558 12.669 13.724 21.115 4.224 9.501 5.278 19.003 1.056 28.504-1.056 3.166-2.11 6.334-3.166 9.501-3.166 10.558-5.278 22.169-6.334 33.784-1.056 12.669 0 26.391 4.224 39.059 3.166 10.558 6.334 22.169 8.445 32.725 1.056 7.389 1.056 15.836 0 23.226-2.11 9.501-4.224 19.003-6.334 27.45-1.056 2.11-1.056 5.281-2.11 7.389 12.669 5.281 26.394 9.501 39.059 14.781 0-1.056 0-1.056 1.056-2.112 1.056-3.166 2.11-6.334 3.166-8.445 4.224-11.612 11.614-20.058 23.226-26.391 8.445-4.224 16.891-9.501 25.337-14.781 9.501-5.281 17.949-10.558 27.45-15.836 11.614-7.391 23.226-15.836 33.784-25.337 1.056-1.056 2.11-1.056 3.166-1.056 3.166 1.056 7.391 2.11 10.558 2.11 11.614 2.11 23.226 4.224 34.838 5.278 8.445 1.056 16.891 2.112 25.337 2.112 7.391 1.054 13.724 1.054 21.115 1.054 12.669 0 24.282 0 36.951-1.054 10.558-1.056 22.169-2.112 32.725-3.166 13.722-2.11 28.504-4.224 42.229-7.391 1.054 0 2.11 0 4.224 1.056 11.614 10.558 23.226 20.058 36.949 27.45 8.445 4.224 15.836 9.501 24.279 13.722 9.501 5.281 19.003 11.614 28.504 16.891 5.281 3.166 9.501 7.391 12.669 11.614 4.224 6.334 7.389 12.669 9.501 19.003 0 1.056 1.054 2.11 1.054 4.224 12.669-5.281 26.391-9.501 39.059-14.781 0-1.054 0-1.054-1.054-2.11-2.11-9.501-5.281-17.949-7.389-27.45-2.11-6.334-3.166-13.722-2.11-20.060 0-5.278 1.054-9.501 2.11-14.779 2.11-9.501 4.224-17.949 7.389-26.394 2.11-7.389 4.224-13.724 4.224-21.115 1.054-12.669 0-25.337-3.166-39.059-2.11-8.445-4.224-15.836-7.389-23.226-3.166-8.445-3.166-16.891 0-25.337 2.11-6.334 6.334-11.614 10.558-16.891 3.166-4.224 7.389-8.445 11.612-12.669 17.947-20.060 32.725-41.173 43.281-65.454 8.445-19.003 12.669-39.059 13.722-60.175 0-1.054 0-1.054 0-2.11-3.166-5.281-3.166-9.501-3.166-13.722z" />
<glyph unicode="&#xe608;" d="M772.59 960h-521.176c-33.356 0-59.414-23.5-59.414-51.514v-920.020c0-28.922 27.104-51.514 59.414-51.514h521.176c33.352 0 59.41 23.502 59.41 51.514v920.020c0 28.922-27.104 51.514-59.41 51.514v0zM512.12-18.212c-35.686 0-63.722 24.98-63.722 56.768 0 31.796 28.036 56.776 63.722 56.776 35.688 0 63.726-24.978 63.726-56.776 0-30.654-29.31-56.768-63.726-56.768zM768 128h-512v768h512v-768zM704.032 832l-384.032-640h384l0.032 640z" />
<glyph unicode="&#xe609;" d="M16.918 811.297h34.727l23.151-64.111c4.451-10.685 8.905-28.495 8.905-28.495s4.451 17.81 9.796 28.495l31.165 65.002h3.562l31.165-65.002c5.343-10.685 9.796-28.495 9.796-28.495s4.451 17.81 8.903 28.495l23.153 64.111h32.056l-58.769-161.167h-3.562l-36.507 76.579c-4.451 8.903-8.903 24.042-8.903 24.042s-5.343-15.139-8.903-24.042l-37.398-76.579h-3.56l-58.769 161.167zM251.103 811.297h32.945v-159.387h-32.945v159.389zM313.432 811.297v-159.387h106.852v28.495h-73.016v130.894zM489.738 680.403c35.616 0 51.644 21.37 51.644 50.755s-16.028 50.755-51.644 50.755h-14.248v-101.51h14.248zM441.655 811.297h49.864c49.864 0 84.591-32.945 84.591-79.25 0-47.192-34.727-80.139-84.593-80.139h-49.864v159.389zM593.919 731.158c0 47.192 36.507 81.919 82.81 81.919 29.384 0 49.866-10.685 64.111-32.945l-24.933-17.81c-8.014 12.467-20.479 20.481-39.181 20.481-29.384 0-48.973-22.262-48.973-51.646s19.59-52.535 48.973-52.535c20.479 0 32.056 9.796 41.85 23.153l25.822-17.81c-14.248-21.37-36.507-34.727-67.672-34.727-46.303 0.891-82.81 35.618-82.81 81.921zM837.899 697.32l-11.574 27.602c-4.454 11.576-9.794 28.495-9.794 28.495s-4.454-16.917-9.794-28.495l-11.574-27.602h42.741zM815.638 812.189h2.671l73.905-161.169h-34.727l-8.014 17.81h-65.002l-7.123-17.81h-32.056l70.345 161.169zM877.078 811.297v-28.493h46.303v-130.894h32.945v130.894h46.303v28.493zM389.12 600.264h57.878v-11.576h-44.523v-35.618h40.959v-11.574h-40.959v-48.083h-13.357zM471.93 545.947c0-23.151 12.467-43.63 34.727-43.63s34.727 20.481 34.727 44.521c0 21.37-11.574 43.63-34.727 43.63s-34.727-21.37-34.727-44.523zM556.523 547.727c0-36.509-22.259-56.097-49.864-56.097-28.495 0-48.973 22.259-48.973 54.315 0 33.838 21.37 56.097 49.864 56.097 29.384 0 48.973-22.259 48.973-54.315zM585.014 549.51h14.248c15.137 0 24.042 8.014 24.042 20.479 0 13.357-9.794 19.59-24.933 19.59-7.123 0-11.574-0.891-13.357-0.891v-39.181zM570.769 598.482c7.123 1.782 16.917 2.671 26.713 2.671 15.137 0 24.933-2.671 31.165-8.905 5.343-4.454 8.905-12.467 8.905-20.479 0-14.248-8.905-23.153-20.479-27.602v-0.891c8.014-2.671 13.357-10.685 16.028-21.37 3.562-15.139 6.232-24.933 8.014-29.384h-14.248c-1.78 2.671-4.454 12.467-7.123 25.824-3.562 15.139-8.905 20.479-21.37 20.479h-13.357v-46.301h-14.248v105.963zM22.262 442.657v-354.394h235.966v64.111h-162.058v290.283zM318.775 442.657h73.905v-354.394h-73.905v354.392zM468.37 442.657v-354.394h73.905v107.743h143.361v65.002h-143.359v117.537h157.607v64.111zM761.32 442.657v-354.394h244.871v64.111h-170.963v50.755h144.25v62.329h-144.25v113.086h163.841v64.111zM32.054 557.523h308.982v-9.796h-308.982v9.796zM677.621 557.523h308.98v-9.796h-308.98v9.796z" />
<glyph unicode="&#xe60a;" d="M64-0.002v896.002h-64v-960h960v64l-896-0.002zM129 960l-0.334-896.666h895.334v896.666h-895zM384 640v-64h-64v64h64zM320.042 704v63.958h63.958v-63.958h-63.958zM896 192l-640 0.208v255.792h640v-256zM832 768v-64h-384v64h384zM832.002 640v-64.042h-384.002v64.042h384.002zM896 832h-640v64h640v-64z" />
<glyph unicode="&#xe60b;" d="M204.643 717.286h79.853l189.016-535.106h-73.058l-46.362 139.139h-231.066l-48.973-139.139h-66.985l197.57 535.106zM141.922 376.311h193.279l-93.629 282.618-99.65-282.618zM468.347 476.842h172.631v-54.993h-172.631v54.993zM646.147 239.755l268.871 422.584h-258.534v54.998h330.687v-60.939l-265.434-419.278h272.306v-54.941h-347.898z" />
<glyph unicode="&#xe60c;" d="M640.042 768h-320.042v-192h320.042v192zM576 622.668h-192v35.65h192v-35.65zM576 722v-35.67h-192v35.67h192zM0 959.98h64v-1024.336h-64v1024.336zM128.032-64h703.968l0.032 1024h-704v-1024zM256 832l448.032-0.032-0.032-320.302h-448v320.334zM896 896h64v-192h-64v192zM896 640h64v-192h-64v192z" />
<glyph unicode="&#xe60d;" d="M672 960v-64h-319.334v64h319.334zM0 960h224v-64h-224v64zM256 960h64.124l-0.124-64h-64v64zM704 960h64v-64h-64v64zM1024 863.834v-63.834h-1023.948l-0.052 64 1024-0.166zM800 960h223.998v-64h-223.998v64zM0.052-61.032h1023.948v828.366h-1023.948v-828.366zM284.524 57.958c-30.252 0-65.548 3.392-84.854 9.224l5.93 32.79c15.938-4.208 49.512-7.552 73.050-7.552 82.272 0 145.212 45.308 145.212 120.916 0 65.472-69.658 106.624-172.908 106.624l6.688 32.788c78.928 2.482 147.748 65.474 147.748 129.304 0 51.208-37.73 78.090-95.702 78.090-36.944 0-72.24-13.504-100.772-31.924l-3.318 27.672c24.326 25.212 69.68 47.892 125.122 47.892 90.634 0 143.568-45.356 143.568-109.996 0-65.502-52.93-116.708-104.974-135.208 70.542-12.62 122.638-62.18 122.638-128.466 0-102.472-94.082-172.154-207.42-172.154h-0.008zM706.888 72.248c-32.814 0-89.014-1.668-110.020-2.482v23.514l52.042 4.162c20.196 1.672 27.72 8.362 27.72 67.198v352.63c0 7.574-3.394 14.262-11.782 14.262-5.88 0-17.61-2.484-30.202-5.858l-57.090-15.94-3.37 24.352 164.598 78.926v-448.384c0-58.836 9.248-65.524 27.72-67.196l55.414-4.162v-23.514c-21.008 0.814-83.134 2.486-115.036 2.486v0.006z" />
<glyph unicode="&#xe60e;" d="M703.342 447.022c0-105.675-85.667-191.342-191.342-191.342s-191.342 85.667-191.342 191.342c0 105.675 85.667 191.342 191.342 191.342s191.342-85.667 191.342-191.342zM448 960h130v-256h-130v256zM839.543 868.477l91.923-91.923-181.016-181.016-91.923 91.923 181.016 181.016zM274.181 302.044l91.924-91.924-181.016-181.016-91.924 91.924 181.016 181.016zM768 513h256v-130h-256v130zM931.109 121.023l-91.923-91.923-181.018 181.018 91.923 91.923 181.018-181.018zM366.098 686.077l-91.923-91.923-181.018 181.018 91.923 91.923 181.018-181.018zM0 513h256v-130h-256v130zM448 193.364h130v-256h-130v256z" />
<glyph unicode="&#xe60f;" d="M506.046 505.318c-23.826-0.13-43.022-19.532-42.932-43.312 0.132-23.828 19.508-43.022 43.334-42.928 23.78 0.13 43.022 19.53 42.884 43.358-0.084 23.784-19.506 43.018-43.286 42.882v0zM640 831.334l-255.916 64.666 0.042-662.75c5.57-1.794 13.798-4.546 19.484-5.888l-8.28-34.9c-6.24 1.436-5.138 1.576-11.246 3.456l-0.098-131.948 256.032-64-0.018 831.364zM435.51 186.098c-6.82 0.536-13.558 1.342-20.358 2.414l5.678 35.39c5.728-0.892 11.502-1.606 17.338-2.012l-2.666-35.792h0.008zM455.89 185.43l-0.272 35.884c5.812 0.046 11.634 0.31 17.496 0.806l3.154-35.752c-6.82-0.582-13.606-0.892-20.384-0.944l0.006 0.006zM496.542 189.1l-6.198 35.302c5.678 1.028 11.366 2.196 17.090 3.716l9.040-34.722c-6.64-1.742-13.286-3.176-19.932-4.292v-0.004zM535.848 199.208l-11.588 33.964c5.5 1.876 10.936 3.984 16.44 6.31l14.116-32.97c-6.33-2.68-12.638-5.142-18.966-7.296v-0.008zM590.638 224.808c-5.862-3.494-11.684-6.758-17.542-9.756l-16.352 31.944c5.164 2.686 10.4 5.502 15.572 8.632l18.322-30.82zM594.216 459.458c-0.27-9.26-1.97-18.142-4.9-26.488-18.504-61.808-82.236-142.618-82.236-142.618s-64.52 80.22-83.584 141.83c-3.024 8.302-4.81 17.182-5.166 26.444-0.044 1.046-0.090 2.104-0.090 3.15-0.248 48.618 38.994 88.214 87.584 88.436 48.616 0.222 88.254-38.994 88.436-87.608 0-1.046 0-2.104-0.046-3.152l0.002 0.006zM960.668 896l-256.418-64-0.218-832.032 255.968 64 0.668 832.032zM723.636 329.818l-17.558 31.37c6.288 3.492 12.458 6.534 18.564 9.214l14.34-32.934c-5.056-2.184-10.186-4.694-15.35-7.65h0.004zM754.824 343.372l-10.538 34.272c6.978 2.19 13.756 3.802 20.496 5.058l6.35-35.302c-5.302-0.982-10.758-2.328-16.304-4.028h-0.004zM804.174 349.012c-3.578 0.358-7.202 0.446-10.856 0.446l-5.682-0.13-1.792 35.794 7.266 0.178c4.726 0.042 9.444-0.13 13.984-0.492l-2.934-35.792 0.014-0.004zM836.882 342.16c-5.208 1.746-10.584 3.31-16.176 4.432l7.342 35.17c7.092-1.48 13.848-3.398 20.334-5.594l-11.5-34.008zM852.61 335.77l15.21 32.484c6.442-2.954 12.55-6.27 18.274-9.62l-18.274-30.876c-4.812 2.86-9.916 5.546-15.21 8.014v-0.002zM882.254 318.224l21.030 29.126c6.042-4.43 11.412-8.724 16.088-12.794l-23.512-27.070c-3.944 3.352-8.482 7.020-13.61 10.738h0.004zM320.038 896.25l-255.996-64.298-0.238-337.202 20.932-19.142-20.654-22.358-0.29-453.282 256.208 64 0.038 832.282zM74.948 435.788l24.388 26.316 13.868-12.888-24.366-26.288-13.89 12.86zM102.708 410.042l24.388 26.31 13.868-12.886-24.36-26.31-13.894 12.886zM130.47 384.268l24.388 26.314 13.916-12.842-24.408-26.354-13.896 12.882zM158.238 358.494l24.43 26.31 13.868-12.884-24.408-26.314-13.89 12.888zM186.002 332.768l24.43 26.266 13.896-12.842-24.432-26.314-13.894 12.89zM213.834 306.996l24.404 26.314 13.894-12.93-24.432-26.308-13.868 12.924zM241.214 281.4l25.010 25.728c4.316-4.206 8.77-8.276 13.284-12.262l-23.778-26.89c-4.896 4.342-9.752 8.772-14.514 13.428l-0.002-0.004zM270.946 255.276l22.416 28.052c4.674-3.76 9.482-7.382 14.342-10.876l-20.852-29.17c-5.416 3.85-10.676 7.834-15.906 11.994v0zM587.334 265.168l12.666 8.666 20.334-32.166-14.166-6.834zM611.334 279.834l12.666 8.666 20.334-32.166-14.166-6.834zM319.78 263.972l12.852-8.386-21.936-31.094-11.736 10.472zM930.662 326.054l11.754-9.304-22.462-29.768-11.292 10.95zM954.608 306.52l11.754-9.306-22.464-29.766-11.29 10.948z" />
<glyph unicode="&#xe610;" d="M305.928 631.906v35.78l-8.788-18.152c0.984-6.968 3.992-13.128 8.788-17.628v0zM352.896 649.48l-8.812 18.23v-35.828c4.822 4.494 7.828 10.656 8.812 17.602v-0.004zM373.324 607.060c-6.162-6.514-13.482-11.894-21.768-15.526l43.38-92.496 12.776-0.078h17.674l-52.062 108.1zM224.902 499.542l30.402-0.1 43.178 92.088c-8.282 3.684-15.628 9.012-21.768 15.576l-52.142-108.144h0.834l-0.506 0.578 0.002 0.002zM339.588 460.81h-28.862l14.37-16.008 14.492 16.008zM297.37 499.312l55.348-0.152-27.726 59.11-27.622-58.958zM272.524 446.318l-9.974-21.262h28.988l-19.014 21.262zM188.944 425.002h31.486l16.74 35.806h-30.958l-17.268-35.806zM846.24 831.964h-782.158v-767.964h960.168v599.464l-178.010 168.5zM523.25 383.958l-396.476 0.092 193.29 409.98 203.186-410.072zM960.666 128h-832.666v64h832.666v-64zM960 256h-832v64h832v-64zM960.332 384h-384.332v63.982h384.332v-63.982zM576 512v64.166h384.332v-64.166h-384.332zM443.848 460.81h-30.984l16.74-35.806h31.514l-17.27 35.806zM358.654 425.002h28.86l-9.9 21.008-18.96-21.008zM0.25 767.876h39.368v-703.876h-39.368v703.876z" />
<glyph unicode="&#xe611;" d="M596.46 491.542c-129.77 0-232.376 105.626-232.376 232.376 0 69.414 30.18 129.768 78.464 172.018h-250.482v-895.936l255.934 238.668 256.668-238.002-0.668 526.668c-30-28.666-74.338-35.792-107.536-35.792v0h-0.004zM596.46 917.068c-105.624 0-190.126-84.502-190.126-190.128s84.502-190.128 190.126-190.128c105.626 0 190.13 84.502 190.13 190.128s-84.502 190.128-190.13 190.128zM699.072 663.564l-42.252-42.25-60.354 63.376-63.376-63.376-39.23 39.232 63.374 63.376-63.374 63.374 39.23 39.232 63.376-63.376 63.376 63.376 39.232-39.232-63.376-63.376 63.374-60.356z" />
<glyph unicode="&#xe612;" d="M256 960v-1024l256 259 256.668-259v1024h-512.668z" />
<glyph unicode="&#xe613;" d="M385.274 63.402l-385.208 385.212 159.174 159.144 385.21-385.236-159.176-159.12zM1024 701.998l-637.48-638.648-159.124 159.176 637.432 638.62 159.172-159.148z" />
<glyph unicode="&#xe614;" d="M557.472 447.453l458.004 458.119c12.902 12.786 12.902 32.023 0 44.867-12.786 12.786-32.023 12.786-44.752 0l-458.177-458.119-458.061 458.061c-12.844 12.786-32.081 12.786-44.867 0-12.844-12.844-12.844-32.081 0-44.867l458.119-458.119-458.119-458.061c-12.786-12.786-12.786-32.023 0-44.867 6.393-6.336 14.975-8.467 23.499-8.467s17.106 2.131 21.368 8.467l458.061 458.119 458.061-458.119c6.393-6.336 14.975-8.467 23.499-8.467s17.106 2.131 21.368 8.467c12.786 12.902 12.786 32.139 0 44.867l-458.004 458.119z" />
<glyph unicode="&#xe615;" d="M187.594 512.032l324.406-320.032 310.236 320.006-634.642 0.026zM384.086 960.008l255.914-0.016-0.042-419.342-255.916 0.016 0.044 419.342zM1023.924 63.99l0.076 319.886-226 0.124-286.038-286.248-285.462 286.248-226.5-0.002v-320l1023.924-0.008zM0-0.038h1023.996l0.004-63.962h-1023.996l-0.004 63.962z" />
<glyph unicode="&#xe616;" d="M375.674 474.17l-183-184.484v357.29l183-172.806zM514.38 468.332l-249.040 236.402h498.006l-248.966-236.402zM583.808 442.408l183.036-187.344h-503.58l183.85 185.542 67.27-64.838 69.424 66.64zM651.098 475.832l181.024 171.036v-356.296l-181.024 185.26zM0-64h1024v1024h-1024v-1024zM896 192h-768v575h768v-575z" />
<glyph unicode="&#xe617;" d="M64 895.974h896v-255.974h-896v255.974zM64 575.988h896v-255.974h-896v255.974zM64 255.644h896v-255.974h-896v255.974z" />
<glyph unicode="&#xe618;" d="M465.558 418.445c-16.89 0-38.001 8.444-50.666 21.113s-21.113 33.779-21.113 50.666l-114.004-114.004c8.444-12.671 16.89-29.555 29.555-42.226s29.555-25.334 46.442-33.779l109.78 118.227zM870.894 899.783c-71.781 71.781-185.78 71.781-257.562 0l-308.228-308.228c-50.666-50.666-63.335-126.667-42.226-190.005l396.894 396.894c29.555 29.555 76.001 29.555 105.557 0s29.555-76.001 0-105.557l-25.334-33.779-363.119-371.561c63.335-21.113 135.111-8.444 185.78 42.226l308.228 308.228c71.781 76.001 71.781 190.005 0 261.783v0zM613.336 456.444c12.671-12.671 21.113-33.779 21.113-50.666l114.004 114.004c-8.444 16.89-16.89 29.555-29.555 42.226s-29.555 25.334-42.226 33.779l-114.004-118.227c16.89 0 33.779-8.444 50.666-21.113v0zM761.117 494.442l-160.448-156.223-236.447-236.447c-29.555-29.555-76.001-29.555-105.557 0s-29.555 76.001 0 105.557l88.669 88.669 206.891 215.337 92.894 92.894c-63.335 21.113-135.111 8.444-185.78-42.226l-308.228-308.228c-71.781-71.781-71.781-185.78 0-257.562s185.78-71.781 257.562 0l308.228 308.228c50.666 54.889 63.335 126.667 42.226 190.005v0z" />
<glyph unicode="&#xe619;" d="M22.677 563.136h983.454v-268.648h-983.454v268.648z" />
<glyph unicode="&#xe61a;" d="M192 960h256v-1024h-256v1024zM576.042 960h255.958v-1024h-255.958v1024z" />
<glyph unicode="&#xe61b;" d="M1023.41 576h-383.41v384h-256v-384h-384v-256.002h384l-0.032-383.998h256l0.032 384.166h383.41z" />
<glyph unicode="&#xe61c;" d="M256 479.5h128v-31.5h-128v31.5zM640 703.5v-63.5h-256v63.502l256-0.002zM384 383.876l256 0.124v-192h-256v191.876zM0-64h1024v1024h-1024v-1024zM832 384h-128v-256l-384-0.504v255.334l-128.666 0.504v257.332h128.628l0.038 127.334 384.040 0.032-1.040-128.016 128-0.032 1-255.984z" />
<glyph unicode="&#xe61d;" d="M525.28 195.398c-140.112-8.004-260.202 96.076-268.21 236.188-8.008 140.11 96.076 260.202 236.188 268.208 52.042 4.004 104.082-12.014 148.116-36.030l180.142 180.144c-96.080 76.058-216.172 116.096-348.28 108.086-280.218-20.014-488.382-260.2-472.37-540.426 20.016-280.218 260.202-488.378 540.426-472.368 140.112 8.004 260.202 72.052 344.272 172.136l-176.132 180.138c-44.036-56.042-108.090-92.070-184.148-96.076v0h-0.004zM960 896l0.67-384.204-385.17 0.288 384.5 383.916z" />
<glyph unicode="&#xe61e;" d="M0 960h1024v-1024h-1024v1024z" />
<glyph unicode="&#xe61f;" d="M704 127.876l-384 0.124v255.998l-320-0.040v-320.042l1023.998 0.082 0.002 319.97-320 0.032v-256.124zM0.002 0.166h1023.998v-64.166h-1023.998v64.166zM512 951.962l-379.334-376.628h753.334l-374 376.628zM640 598.588l0.334-406.588-256-0.334-0.334 406.922h256z" />
<glyph unicode="&#xe620;" d="M704-0.166v256.166h256.002l-256.002-256.166zM320.032-0.032l-256.032 256.032 256-0.032 0.032-256zM64.032 639.968l256.052 255.948-0.052-255.886-256-0.062zM704.032 895.968l256.052-255.968h-256.052v255.968zM383.7 575.708l256.3 0.292 0.3-256-256.3-0.292-0.3 256z" />
<glyph unicode="&#xe621;" d="M649.452 0l310.548 310.548v-310.548h-310.548zM64 310.548l310.548-310.548h-310.548v310.548zM369.376 895.376l-305.376-305.376v305.376h305.376zM960 584l-305.376 310.55h305.376v-310.55zM384 576h256v-256h-256v256z" />
<glyph unicode="&#xe622;" d="M512-43.376v1001.19l511.052-500.594-511.052-500.596zM0-41.188v1001.188l485.762-500.594-485.762-500.594z" />
<glyph unicode="&#xe623;" d="M512 962v-1026l-511.052 512 511.052 514zM1024 959.812v-1023.812l-486 512 486 511.812z" />
<glyph unicode="&#xe624;" d="M640 320v640h-255.666v-639.668h-255.834l383.5-381.236 384.668 380.904h-256.668z" />
<glyph unicode="&#xe625;" d="M600.176 717.124l-452.552-452.55 180.784-180.782 452.316 452.312 180.9-180.9-1.6 540.75-541.342 2.662 181.494-181.492z" />
<glyph unicode="&#xe626;" d="M640.668 793.686v-218.14l-640.668 0.454v-256l640.666-0.456v-217.228l383.334 345.684-383.332 345.686z" />
<glyph unicode="&#xe627;" d="M779.27 360.382l-452.552 452.552-180.782-180.784 452.312-452.316-180.9-180.9 540.75 1.6 2.662 541.342-181.49-181.494z" />
<glyph unicode="&#xe628;" d="M384.052 579.096v-640.002h255.666l0.002 639.67h255.832l-383.5 381.236-384.668-380.904h256.668z" />
<glyph unicode="&#xe629;" d="M383.332 102.318v218.14l640.668-0.454v256l-640.666 0.456v217.228l-383.334-345.684 383.332-345.686z" />
<glyph unicode="&#xe62a;" d="M423.936 177.080l452.552 452.55-180.784 180.782-452.316-452.31-180.9 180.9 1.602-540.75 541.34-2.666-181.494 181.494z" />
<glyph unicode="&#xe62b;" d="M243.568 535.552l452.552-452.55 180.782 180.784-452.312 452.316 179.82 179.82-540.408-0.046v-540.652l179.566 180.328z" />
<glyph unicode="&#xe62c;" d="M64-0.002l0.084 895.918-59.302 64.084h-4.782v-1024h1024l-63.5 64-896.5-0.002z" />
<glyph unicode="&#xe62d;" d="M934.072 703.826l-421.914-421.254-421.824 420.93-90.334 0.334 512.26-511.674 511.74 511.674-89.928-0.010z" />
<glyph unicode="&#xe62e;" d="M63.5 0l-63.5-64h1024v1024h-4.782l-59.3-64.084 0.082-895.918-896.5 0.002z" />
<glyph unicode="&#xe62f;" d="M256.172 870.072l421.252-421.914-420.926-421.826-0.334-90.332 511.672 512.26-511.672 511.74 0.008-89.928z" />
<glyph unicode="&#xe630;" d="M960-0.5l64-63.5v1024h-1024v-4.782l64.084-59.3 895.918 0.082-0.002-896.5z" />
<glyph unicode="&#xe631;" d="M89.928 192.174l421.914 421.254 421.826-420.93 90.332-0.334-512.26 511.674-511.74-511.674 89.928 0.010z" />
<glyph unicode="&#xe632;" d="M63.998 896l895.918-0.082 64.084 59.3v4.782h-1024v-1024l64 63.5-0.002 896.5z" />
<glyph unicode="&#xe633;" d="M767.824 25.93l-421.254 421.914 420.93 421.824 0.334 90.332-511.674-512.258 511.674-511.74-0.010 89.928z" />
<glyph unicode="&#xe634;" d="M128.936 789.058l724.11-724.102-724.108-0.034-0.002 724.136z" />
<glyph unicode="&#xe635;" d="M-0.020 640.042h1024.040l-511.998-512.042-512.042 512.042z" />
<glyph unicode="&#xe636;" d="M171.922 63.934l724.104 724.11 0.034-724.108-724.138-0.002z" />
<glyph unicode="&#xe637;" d="M320.008-64.020v1024.042l512.042-511.998-512.042-512.044z" />
<glyph unicode="&#xe638;" d="M894.046 107.922l-724.11 724.102 724.112 0.034v-724.136z" />
<glyph unicode="&#xe639;" d="M1024.022 256.012l-1024.042-0.004 511.998 512.044 512.044-512.040z" />
<glyph unicode="&#xe63a;" d="M852.14 831.92l-724.1-724.112-0.036 724.11 724.136 0.002z" />
<glyph unicode="&#xe63b;" d="M703.99 960.020l0.004-1024.040-512.044 511.998 512.040 512.042z" />
<glyph unicode="&#xe63c;" d="M918.989 703.646v-0.374l-373.212-394.941-66.234 109.919c-19.074-44.843-56.1-80.373-102.064-97.95l161.939-147.354 506.317 410.909v253.457l-18.326-19.223-108.422-114.442zM-30.625 985.228v-1077.859h1076.4v636.431l-18.326-14.811-215.796-175.070 27.676-27.639-285.397-285.772-248.707 248.745c-111.825 1.458-201.958 92.715-201.958 204.913 0 113.322 91.667 204.913 204.949 204.913 90.134 0 166.466-57.932 194.142-138.716l51.575 51.201 120.465-120.426 371.342 391.051v103.036h-1076.361zM415.030 602.256c-27.676 27.676-65.824 44.879-107.748 44.879-42.223 0-80.334-17.204-108.048-44.879s-44.543-65.824-44.543-108.123c0-41.851 16.867-79.997 44.543-107.673s65.824-44.88 108.048-44.88c41.925 0 80.071 17.204 107.748 44.88s44.843 65.824 44.843 107.673c0 42.298-17.167 80.447-44.843 108.123z" horiz-adv-x="1023" />
<glyph unicode="&#xe63d;" d="M1024.032 960h-1024.032v-1023.994h312.038c0 0.746 0.178 1.384 0.178 2.13-0.356 8.024-1.206 15.976-2.342 23.93-1.066 9.554-2.2 19.070-4.084 28.514 0.464-0.212 0.89-0.462 1.314-0.638-1.458 35.686-0.284 78.47 8.84 117.28 9.8 41.366 65.688 278.056 65.688 278.056s-16.334 32.526-16.334 80.744c0 75.664 43.922 132.084 98.498 132.084 46.408 0 68.78-34.796 68.78-76.624 0-46.656-29.72-116.392-45.060-181.086-12.748-54.114 27.198-98.32 80.564-98.32 96.758 0 161.878 124.206 161.878 271.38 0 111.85-75.346 195.61-212.37 195.61-154.812 0-251.32-115.47-251.32-244.432 0-44.49 13.17-75.878 33.66-100.128 9.446-11.15 10.722-15.66 7.386-28.476-2.522-9.338-8.098-31.958-10.404-40.906-3.338-12.924-13.918-17.576-25.564-12.784-71.334 29.082-104.534 107.234-104.534 194.972 0 145.010 122.252 318.82 364.766 318.82 194.828 0 323.082-141.034 323.082-292.332 0-200.228-111.282-349.852-275.36-349.852-55.074 0-106.876 29.862-124.666 63.666 0 0-29.65-117.602-35.968-140.328-10.582-38.63-31.176-77.12-50.244-107.518-3.942-3.338-7.492-7.062-10.722-11.042-9.052-6.994-17.362-14.486-25.316-22.724h691.646v1023.994l0.002 0.004z" />
<glyph unicode="&#xe63e;" d="M0 960v-1020.902h3.060v-4.95h1020.94v1025.85l-1024 0.002zM461.696 384.286c-40.070 40.248-93.804 62.492-150.494 62.562v86.866c82.776 0 157.754-33.628 212.098-88.144 54.446-54.482 88.11-129.43 88.18-212.204h-87.29v0.144c-0.144 57.044-22.314 110.744-62.492 150.778l-0.002-0.002zM432.126 294.142c-0.072-16.618-6.76-31.562-17.72-42.526h-0.074c-11.032-10.924-26.010-17.72-42.812-17.72-16.724 0-31.672 6.798-42.738 17.72-10.856 10.998-17.722 25.944-17.722 42.526 0 16.584 6.868 31.636 17.722 42.528 11.102 10.996 26.014 17.72 42.738 17.72 16.798 0 31.746-6.724 42.812-17.72 10.998-10.89 17.722-25.908 17.794-42.528v0zM311.344 601.644v86.868c125.336-0.072 238.998-51.102 321.45-133.59 82.418-82.416 133.412-196.152 133.484-321.524h-87.186c-0.070 202.95-165.014 368.106-367.748 368.246v0z" horiz-adv-x="1022" />
<glyph unicode="&#xe63f;" d="M344 540.4c-35.2 19.2-51.2 51.2-57.6 89.6-6.4 25.6-3.202 51.2 9.6 76.8 19.2 38.4 57.6 48 89.6 25.6 41.6-28.8 54.4-70.4 57.6-115.2 0-19.2-3.2-38.4-12.798-54.4-19.202-32-54.402-41.6-86.402-22.4zM465.6 367.602c-28.798 19.2-57.6 25.598-96 25.598s-73.6-12.796-102.4-38.398c-38.4-38.4-35.2-89.602 9.6-118.4 35.2-25.602 73.6-32 115.2-22.4 32 6.4 57.6 16 80 38.4 35.2 35.2 32 83.2-6.4 115.2zM1024 960v-1024h-1024v1024h1024zM520.002 393.2c-12.798 16-25.6 28.8-41.6 41.602-9.602 9.6-25.602 19.2-35.2 32-16 16-16 28.798 0 44.798 9.598 9.6 19.2 16 28.798 25.6 22.4 22.4 41.6 44.8 44.8 76.8 3.202 19.2 3.202 38.4 0 57.6 0 28.8-12.8 54.4-41.602 67.2-3.2 0-3.2 0-3.2 3.2 3.2 0 3.2 3.2 6.4 3.2 9.6 3.2 22.4 3.2 32 6.4s22.396 3.2 32 9.6c0 3.2 3.2 6.4 3.2 9.6s-3.198 3.2-6.4 3.2c-25.6 0-54.398 0-80 0-19.2 0-41.6 0-64 0.002-19.2 0-38.398-3.2-67.2-9.6-16-3.2-35.2-9.6-51.2-19.2-67.202-35.2-83.202-89.6-73.602-153.6 6.4-54.398 41.602-83.2 92.8-96 16-3.2 28.8-3.2 44.8-3.2 6.398 0 9.6-3.2 9.6-9.602 0-19.202-3.202-35.202 16-48 6.4-3.202 9.6-9.602 6.4-16 0-6.4-6.4-3.202-12.8-3.202-44.8 0-89.6-6.4-131.2-28.798-28.798-16-51.198-38.4-57.598-70.4-12.8-60.8 16-112 73.598-134.4 44.8-19.2 96-22.4 144-16 38.402 6.4 70.402 16 102.402 38.4 60.804 41.598 73.602 134.4 28.804 188.8zM856 658.8h-112v115.2h-32v-115.2h-112v-32h112v-112h32v112h112v32z" />
<glyph unicode="&#xe640;" d="M852.14 831.92l-724.1-724.112-0.036 724.11 724.136 0.002z" />
<glyph unicode="&#xe641;" d="M703.99 960.020l0.004-1024.040-512.044 511.998 512.040 512.042z" />
<glyph unicode="&#xf100;" d="M365.314 628.408c28.1 0 44.96-17.982 44.96-42.714 0-23.604-17.984-42.712-46.086-42.712v0c-26.978 0-44.962 19.11-44.962 42.712 0 24.728 17.982 42.714 46.088 42.714zM323.724 265.344v245.040h80.93v-245.042l-80.93 0.002zM604.732 516.002c53.954 0 93.294-34.844 93.294-110.156v-139.38h-80.934v130.388c0 32.596-12.366 55.078-41.592 55.078-22.478 0-35.968-14.616-41.59-29.228-2.248-5.62-2.248-12.364-2.248-20.232v-137.132h-80.932c0 0 1.124 222.56 0 245.042h80.932v-34.844c10.118 16.856 30.35 40.462 73.066 40.462l0.004 0.002zM0 960h1024v-1024h-1024v1024zM768.044 230.218l-0.036 435.564c0 21.358-16.862 38.218-39.342 38.218l-433.332-0.398c-21.354 0-39.34-16.858-39.34-38.218l-0.042-435.486c0-21.36 16.858-38.218 39.34-38.218l433.412 0.32c21.354 0 39.34 16.862 39.34 38.218z" />
<glyph unicode="&#xf101;" d="M307.988 569.96v104.534h17.982v-104.534h-17.982zM277.636 643.020c0 10.116 3.372 12.366 8.992 19.108l8.992 11.24v-104.536h-17.982v74.188h-0.002zM337.21 569.96v104.534h17.984v-104.534h-17.984zM367.56 569.96v104.534h17.984v-104.534h-17.984zM423.762 480.038c0 55.452 29.226 83.176 87.672 83.176s87.676-27.724 87.676-83.176c0-55.454-29.224-83.18-87.672-83.18-58.45 0-87.672 27.726-87.672 83.18h-0.004zM0 960h1024v-1024h-1024v1024zM769 533l-144.036-0.136c8.996-15.736 13.49-32.598 13.49-51.706 0-65.194-56.208-116.9-125.892-116.9-69.69 0-125.892 52.832-125.892 116.9 0 17.984 4.498 35.97 13.486 51.706l-144.156 0.136 0.294-285.922c0-40.462 8.99-55.078 51.706-55.078h402.846c46.086 0 57.328 10.118 57.328 53.956zM401.282 480.038c0-56.202 49.456-103.41 110.156-103.41 60.698 0 110.156 46.084 110.156 103.41s-49.456 103.414-110.156 103.414-110.156-46.088-110.156-103.414zM768.5 556.5v96.666c0 44.964-12.364 50.582-53.956 50.582l-404.878 0.252c-39.34 0-53.954-12.364-53.954-62.946l0.162-89.080h157.776c22.478 26.978 58.45 44.964 98.912 44.964 40.468 0 76.44-13.458 98.914-40.438h157.024zM705.896 668.874c31.472 0 37.092-10.114 35.97-42.71v-12.366c0-25.854-5.622-39.34-31.476-39.34h-47.208c-25.854 0-33.724 8.992-33.724 47.208 0 34.844 8.994 47.21 34.846 47.21l41.592-0.002z" />
<glyph unicode="&#xf102;" d="M698.358 763.49c3.384-4.518 5.642-9.034 5.642-14.678v-536.5c0-5.644-2.258-11.29-5.642-14.68-4.52-3.384-9.036-5.64-14.678-5.64l-343.442-0.228c-5.644 0-11.292 2.256-14.678 5.642-3.386 4.518-5.642 9.036-5.642 14.678l0.082 536.666c0 4.518 2.258 10.162 5.644 13.546 4.516 3.386 9.032 5.642 14.676 5.642l343.36 0.062c0 0.004 10.16-1.122 14.678-4.51zM512 163.676c13.546 0 25.968-5.646 35-14.678 10.158-9.034 14.676-21.452 14.676-35 0-13.544-4.518-24.838-14.676-34.996-9.036-10.164-21.454-14.678-35-14.678s-24.834 4.514-34.998 14.678c-10.162 9.032-14.676 21.452-14.676 34.996 0 13.548 4.514 24.838 14.676 35 9.030 10.16 21.452 14.678 34.998 14.678zM0 960h1024v-1024h-1024v1024zM768.666 814.71c0 22.578-7.904 41.774-23.708 57.578-15.808 15.808-33.874 23.712-55.324 23.712h-354.604c-21.452 0-39.514-6.774-55.322-23.708s-23.708-35-23.708-57.582l0.302-732.756c0-22.576 7.904-41.776 23.708-57.582 15.806-15.802 33.87-23.708 55.322-23.708l354.334-0.668c21.452 0 39.516 7.904 55.32 23.708 15.806 16.938 23.71 35 23.71 57.582l-0.030 733.424z" />
<glyph unicode="&#xf103;" d="M0 960h1024.002v-1024h-1024.002v1024zM638.458 459.8l12.366 102.288h-92.174v50.582c0 25.856 2.248 40.464 40.464 40.464h50.582v101.164h-82.056c-97.792 0-132.636-49.456-132.636-132.638v-60.698h-60.698v-101.166h60.698v-295.62h121.396v295.62l82.058 0.004z" />
<glyph unicode="&#xf104;" d="M448.76 355.154l0.114 183.312 174.528-92.716-174.642-90.596zM0 960h1024v-1025.124h-1024v1025.124zM847.332 414.24v0 50.638c0 55.138-6.756 109.152-6.756 109.152s-6.752 46.136-27.004 66.392c-25.882 25.878-54.016 27.006-67.514 28.13-93.398 6.752-234.058 6.752-234.058 6.752v0c0 0-140.66 0-234.058-6.752-13.502-1.122-41.636-1.122-67.514-28.13-20.254-20.256-27.008-66.392-27.008-66.392s-6.752-55.138-6.752-109.152v-50.638c0-55.14 6.752-109.152 6.752-109.152s6.754-46.134 27.008-66.39c25.882-27.008 59.638-25.882 74.268-29.26 52.89-5.626 227.304-6.752 227.304-6.752s140.66 0 234.058 7.876c13.502 1.124 41.636 1.124 67.514 28.13 20.256 20.254 27.008 66.392 27.008 66.392s6.752 55.138 6.752 109.156v0z" />
<glyph unicode="&#xf105;" d="M4.702 960h1019.298v-1024h-1019.298v1024zM717.54 561.902c21.328 14.664 39.29 33.836 51.638 54.134-19.086-9.022-39.29-14.666-60.618-16.918 21.328 13.532 38.168 33.832 46.026 58.642-20.21-12.406-42.66-21.428-66.232-25.938-19.088 21.424-46.028 33.834-76.338 33.834-58.376 0-105.524-47.368-105.524-106.010 0-7.894 0-15.788 2.246-23.684-87.56 4.514-165.018 46.238-216.658 110.524-8.978-15.788-14.594-33.836-14.594-53.004 0-37.216 19.084-68.792 47.15-87.964-16.838 1.128-32.552 5.636-47.15 13.532v-1.128c0-51.876 35.922-93.602 84.192-103.752-8.98-2.256-19.084-3.382-28.064-3.382-6.736 0-13.47 1.126-20.208 2.252 13.47-41.726 52.764-72.172 98.788-73.302-35.924-28.196-80.826-45.114-130.222-45.114-7.86 0-16.838 0-24.694 1.13 47.15-30.452 102.156-47.366 161.65-47.366 193.082 0 298.606 160.138 298.606 299.982v13.53l0.006 0.002z" />
</font>
</defs>
</svg>
